<svg width="320" height="29" viewBox="0 0 320 29" fill="none" xmlns="http://www.w3.org/2000/svg">
<path d="M79.968 12.778V16.782H88.002V20.76H79.968V27H74.82V8.8H89.094V12.778H79.968ZM91.5016 8.8H96.6496V27H91.5016V8.8ZM106.708 27.364C105.235 27.364 103.805 27.182 102.418 26.818C101.032 26.454 99.9049 25.9687 99.0382 25.362L100.728 21.566C101.543 22.1033 102.488 22.5367 103.562 22.866C104.637 23.1953 105.694 23.36 106.734 23.36C108.71 23.36 109.698 22.866 109.698 21.878C109.698 21.358 109.412 20.9767 108.84 20.734C108.286 20.474 107.384 20.2053 106.136 19.928C104.767 19.6333 103.623 19.3213 102.704 18.992C101.786 18.6453 100.997 18.0993 100.338 17.354C99.6795 16.6087 99.3502 15.6033 99.3502 14.338C99.3502 13.2287 99.6535 12.232 100.26 11.348C100.867 10.4467 101.768 9.736 102.964 9.216C104.178 8.696 105.66 8.436 107.41 8.436C108.606 8.436 109.785 8.57467 110.946 8.852C112.108 9.112 113.13 9.502 114.014 10.022L112.428 13.844C110.695 12.908 109.014 12.44 107.384 12.44C106.362 12.44 105.616 12.596 105.148 12.908C104.68 13.2027 104.446 13.5927 104.446 14.078C104.446 14.5633 104.724 14.9273 105.278 15.17C105.833 15.4127 106.726 15.664 107.956 15.924C109.343 16.2187 110.487 16.5393 111.388 16.886C112.307 17.2153 113.096 17.7527 113.754 18.498C114.43 19.226 114.768 20.2227 114.768 21.488C114.768 22.58 114.465 23.568 113.858 24.452C113.252 25.336 112.342 26.0467 111.128 26.584C109.915 27.104 108.442 27.364 106.708 27.364ZM134.462 8.8V27H129.314V19.902H122.294V27H117.146V8.8H122.294V15.638H129.314V8.8H134.462ZM152.705 23.022V27H138.093V8.8H152.367V12.778H143.189V15.846H151.275V19.694H143.189V23.022H152.705ZM163.518 22.164H160.71V27H155.562V8.8H163.882C165.529 8.8 166.959 9.07733 168.172 9.632C169.386 10.1693 170.322 10.9493 170.98 11.972C171.639 12.9773 171.968 14.1647 171.968 15.534C171.968 16.8513 171.656 18.004 171.032 18.992C170.426 19.9627 169.55 20.7253 168.406 21.28L172.332 27H166.82L163.518 22.164ZM166.768 15.534C166.768 14.6847 166.5 14.026 165.962 13.558C165.425 13.09 164.628 12.856 163.57 12.856H160.71V18.186H163.57C164.628 18.186 165.425 17.9607 165.962 17.51C166.5 17.042 166.768 16.3833 166.768 15.534ZM174.135 17.692H181.727V21.488H174.135V17.692ZM190.878 27.364C189.405 27.364 187.975 27.182 186.588 26.818C185.201 26.454 184.075 25.9687 183.208 25.362L184.898 21.566C185.713 22.1033 186.657 22.5367 187.732 22.866C188.807 23.1953 189.864 23.36 190.904 23.36C192.88 23.36 193.868 22.866 193.868 21.878C193.868 21.358 193.582 20.9767 193.01 20.734C192.455 20.474 191.554 20.2053 190.306 19.928C188.937 19.6333 187.793 19.3213 186.874 18.992C185.955 18.6453 185.167 18.0993 184.508 17.354C183.849 16.6087 183.52 15.6033 183.52 14.338C183.52 13.2287 183.823 12.232 184.43 11.348C185.037 10.4467 185.938 9.736 187.134 9.216C188.347 8.696 189.829 8.436 191.58 8.436C192.776 8.436 193.955 8.57467 195.116 8.852C196.277 9.112 197.3 9.502 198.184 10.022L196.598 13.844C194.865 12.908 193.183 12.44 191.554 12.44C190.531 12.44 189.786 12.596 189.318 12.908C188.85 13.2027 188.616 13.5927 188.616 14.078C188.616 14.5633 188.893 14.9273 189.448 15.17C190.003 15.4127 190.895 15.664 192.126 15.924C193.513 16.2187 194.657 16.5393 195.558 16.886C196.477 17.2153 197.265 17.7527 197.924 18.498C198.6 19.226 198.938 20.2227 198.938 21.488C198.938 22.58 198.635 23.568 198.028 24.452C197.421 25.336 196.511 26.0467 195.298 26.584C194.085 27.104 192.611 27.364 190.878 27.364ZM204.936 12.882H199.346V8.8H215.648V12.882H210.084V27H204.936V12.882ZM226.49 27.364C224.566 27.364 222.833 26.9567 221.29 26.142C219.765 25.3273 218.56 24.2007 217.676 22.762C216.81 21.3233 216.376 19.7027 216.376 17.9C216.376 16.0973 216.81 14.4767 217.676 13.038C218.56 11.5993 219.765 10.4727 221.29 9.658C222.833 8.84333 224.566 8.436 226.49 8.436C228.414 8.436 230.139 8.84333 231.664 9.658C233.207 10.4727 234.412 11.5993 235.278 13.038C236.162 14.4767 236.604 16.0973 236.604 17.9C236.604 19.7027 236.162 21.3233 235.278 22.762C234.412 24.2007 233.207 25.3273 231.664 26.142C230.139 26.9567 228.414 27.364 226.49 27.364ZM226.49 23.1C227.409 23.1 228.241 22.8833 228.986 22.45C229.732 22.0167 230.321 21.41 230.754 20.63C231.188 19.8327 231.404 18.9227 231.404 17.9C231.404 16.8773 231.188 15.976 230.754 15.196C230.321 14.3987 229.732 13.7833 228.986 13.35C228.241 12.9167 227.409 12.7 226.49 12.7C225.572 12.7 224.74 12.9167 223.994 13.35C223.249 13.7833 222.66 14.3987 222.226 15.196C221.793 15.976 221.576 16.8773 221.576 17.9C221.576 18.9227 221.793 19.8327 222.226 20.63C222.66 21.41 223.249 22.0167 223.994 22.45C224.74 22.8833 225.572 23.1 226.49 23.1ZM247.256 22.164H244.448V27H239.3V8.8H247.62C249.267 8.8 250.697 9.07733 251.91 9.632C253.124 10.1693 254.06 10.9493 254.718 11.972C255.377 12.9773 255.706 14.1647 255.706 15.534C255.706 16.8513 255.394 18.004 254.77 18.992C254.164 19.9627 253.288 20.7253 252.144 21.28L256.07 27H250.558L247.256 22.164ZM250.506 15.534C250.506 14.6847 250.238 14.026 249.7 13.558C249.163 13.09 248.366 12.856 247.308 12.856H244.448V18.186H247.308C248.366 18.186 249.163 17.9607 249.7 17.51C250.238 17.042 250.506 16.3833 250.506 15.534ZM273.159 23.022V27H258.547V8.8H272.821V12.778H263.643V15.846H271.729V19.694H263.643V23.022H273.159ZM278.115 27.234C277.283 27.234 276.581 26.9567 276.009 26.402C275.437 25.8473 275.151 25.1453 275.151 24.296C275.151 23.4293 275.429 22.7273 275.983 22.19C276.555 21.6527 277.266 21.384 278.115 21.384C278.982 21.384 279.693 21.6527 280.247 22.19C280.802 22.7273 281.079 23.4293 281.079 24.296C281.079 25.1453 280.793 25.8473 280.221 26.402C279.667 26.9567 278.965 27.234 278.115 27.234ZM291.589 22.164H288.781V27H283.633V8.8H291.953C293.599 8.8 295.029 9.07733 296.243 9.632C297.456 10.1693 298.392 10.9493 299.051 11.972C299.709 12.9773 300.039 14.1647 300.039 15.534C300.039 16.8513 299.727 18.004 299.103 18.992C298.496 19.9627 297.621 20.7253 296.477 21.28L300.403 27H294.891L291.589 22.164ZM294.839 15.534C294.839 14.6847 294.57 14.026 294.033 13.558C293.495 13.09 292.698 12.856 291.641 12.856H288.781V18.186H291.641C292.698 18.186 293.495 17.9607 294.033 17.51C294.57 17.042 294.839 16.3833 294.839 15.534ZM311.277 27.364C308.573 27.364 306.467 26.6273 304.959 25.154C303.468 23.6807 302.723 21.592 302.723 18.888V8.8H307.871V18.732C307.871 21.644 309.023 23.1 311.329 23.1C313.617 23.1 314.761 21.644 314.761 18.732V8.8H319.831V18.888C319.831 21.592 319.077 23.6807 317.569 25.154C316.078 26.6273 313.981 27.364 311.277 27.364Z" fill="white"/>
<path d="M37.0417 12.0167L31.2232 15.3757L45.7382 23.7552L37.1074 28.7377L22.5925 20.3582L11.7313 26.6284L3.54976e-05 19.8559L33.9412 0.261719L62.2254 16.5902L53.5947 21.5728L37.0417 12.0167Z" fill="white"/>
</svg>

