<svg width="320" height="48" viewBox="0 0 320 48" fill="none" xmlns="http://www.w3.org/2000/svg">
<path d="M84.088 43.46V47.086H82.408V45H74.89V47.086H73.196L73.21 43.46H73.63C74.246 43.432 74.6753 42.9793 74.918 42.102C75.17 41.2153 75.324 39.9507 75.38 38.308L75.492 35.2H82.674V43.46H84.088ZM76.976 38.476C76.9293 39.7453 76.8267 40.8047 76.668 41.654C76.5093 42.494 76.2573 43.096 75.912 43.46H80.882V36.74H77.046L76.976 38.476ZM85.6057 37.524H87.3557V42.452L91.4857 37.524H93.0817V45H91.3317V40.072L87.2157 45H85.6057V37.524ZM100.854 41.108C101.778 41.388 102.24 41.9853 102.24 42.9C102.24 43.572 101.988 44.09 101.484 44.454C100.98 44.818 100.233 45 99.2438 45H95.4358V37.524H99.0898C100.004 37.524 100.718 37.692 101.232 38.028C101.745 38.364 102.002 38.84 102.002 39.456C102.002 39.8387 101.899 40.17 101.694 40.45C101.498 40.73 101.218 40.9493 100.854 41.108ZM97.1018 40.646H98.9358C99.8411 40.646 100.294 40.3333 100.294 39.708C100.294 39.1013 99.8411 38.798 98.9358 38.798H97.1018V40.646ZM99.1038 43.726C100.065 43.726 100.546 43.4133 100.546 42.788C100.546 42.4613 100.434 42.2187 100.21 42.06C99.9858 41.892 99.6358 41.808 99.1598 41.808H97.1018V43.726H99.1038ZM106.89 37.44C107.991 37.44 108.831 37.706 109.41 38.238C109.998 38.7607 110.292 39.554 110.292 40.618V45H108.64V44.09C108.425 44.4167 108.117 44.6687 107.716 44.846C107.324 45.014 106.848 45.098 106.288 45.098C105.728 45.098 105.238 45.0047 104.818 44.818C104.398 44.622 104.071 44.356 103.838 44.02C103.614 43.6747 103.502 43.2873 103.502 42.858C103.502 42.186 103.749 41.6493 104.244 41.248C104.748 40.8373 105.536 40.632 106.61 40.632H108.542V40.52C108.542 39.9973 108.383 39.596 108.066 39.316C107.758 39.036 107.296 38.896 106.68 38.896C106.26 38.896 105.844 38.9613 105.434 39.092C105.032 39.2227 104.692 39.4047 104.412 39.638L103.726 38.364C104.118 38.0653 104.589 37.8367 105.14 37.678C105.69 37.5193 106.274 37.44 106.89 37.44ZM106.652 43.824C107.09 43.824 107.478 43.726 107.814 43.53C108.159 43.3247 108.402 43.0353 108.542 42.662V41.794H106.736C105.728 41.794 105.224 42.1253 105.224 42.788C105.224 43.1053 105.35 43.3573 105.602 43.544C105.854 43.7307 106.204 43.824 106.652 43.824ZM112.457 37.524H114.207V40.562H117.973V37.524H119.723V45H117.973V42.046H114.207V45H112.457V37.524ZM125.709 39.988C126.661 39.988 127.389 40.2027 127.893 40.632C128.397 41.0613 128.649 41.668 128.649 42.452C128.649 43.2733 128.369 43.908 127.809 44.356C127.258 44.804 126.474 45.0233 125.457 45.014L122.069 45V37.524H123.819V39.974L125.709 39.988ZM129.615 37.524H131.365V45H129.615V37.524ZM125.303 43.726C125.816 43.7353 126.208 43.628 126.479 43.404C126.749 43.18 126.885 42.8533 126.885 42.424C126.885 42.004 126.754 41.696 126.493 41.5C126.231 41.304 125.835 41.2013 125.303 41.192L123.819 41.178V43.712L125.303 43.726ZM140.918 45.098C140.162 45.098 139.481 44.9347 138.874 44.608C138.267 44.2813 137.791 43.8287 137.446 43.25C137.11 42.662 136.942 41.9993 136.942 41.262C136.942 40.5247 137.11 39.8667 137.446 39.288C137.791 38.7093 138.267 38.2567 138.874 37.93C139.481 37.6033 140.162 37.44 140.918 37.44C141.683 37.44 142.369 37.6033 142.976 37.93C143.583 38.2567 144.054 38.7093 144.39 39.288C144.735 39.8667 144.908 40.5247 144.908 41.262C144.908 41.9993 144.735 42.662 144.39 43.25C144.054 43.8287 143.583 44.2813 142.976 44.608C142.369 44.9347 141.683 45.098 140.918 45.098ZM140.918 43.6C141.562 43.6 142.094 43.3853 142.514 42.956C142.934 42.5267 143.144 41.962 143.144 41.262C143.144 40.562 142.934 39.9973 142.514 39.568C142.094 39.1387 141.562 38.924 140.918 38.924C140.274 38.924 139.742 39.1387 139.322 39.568C138.911 39.9973 138.706 40.562 138.706 41.262C138.706 41.962 138.911 42.5267 139.322 42.956C139.742 43.3853 140.274 43.6 140.918 43.6ZM152.286 39.008H149.668V45H147.918V39.008H145.286V37.524H152.286V39.008ZM168.82 40.086C168.82 41.374 168.372 42.3913 167.476 43.138C166.58 43.8847 165.306 44.2907 163.654 44.356V45.392H161.974V44.356C160.322 44.272 159.043 43.8613 158.138 43.124C157.242 42.3867 156.794 41.374 156.794 40.086C156.794 38.798 157.242 37.7853 158.138 37.048C159.043 36.3013 160.322 35.886 161.974 35.802V34.808H163.654V35.802C165.306 35.886 166.58 36.3013 167.476 37.048C168.372 37.7853 168.82 38.798 168.82 40.086ZM163.654 42.928C164.774 42.844 165.623 42.564 166.202 42.088C166.781 41.6027 167.07 40.9307 167.07 40.072C167.07 39.2133 166.776 38.546 166.188 38.07C165.609 37.594 164.765 37.3187 163.654 37.244V42.928ZM158.572 40.086C158.572 40.9353 158.861 41.598 159.44 42.074C160.028 42.55 160.873 42.8347 161.974 42.928V37.244C159.706 37.412 158.572 38.3593 158.572 40.086ZM170.535 37.524H172.285V42.452L176.415 37.524H178.011V45H176.261V40.072L172.145 45H170.535V37.524ZM191.383 37.524V45H180.365V37.524H182.115V43.516H185.013V37.524H186.763V43.516H189.633V37.524H191.383ZM200.737 41.304C200.737 41.4253 200.727 41.598 200.709 41.822H194.843C194.945 42.3727 195.211 42.8113 195.641 43.138C196.079 43.4553 196.621 43.614 197.265 43.614C198.086 43.614 198.763 43.3433 199.295 42.802L200.233 43.88C199.897 44.2813 199.472 44.5847 198.959 44.79C198.445 44.9953 197.867 45.098 197.223 45.098C196.401 45.098 195.678 44.9347 195.053 44.608C194.427 44.2813 193.942 43.8287 193.597 43.25C193.261 42.662 193.093 41.9993 193.093 41.262C193.093 40.534 193.256 39.8807 193.583 39.302C193.919 38.714 194.381 38.2567 194.969 37.93C195.557 37.6033 196.219 37.44 196.957 37.44C197.685 37.44 198.333 37.6033 198.903 37.93C199.481 38.2473 199.929 38.7 200.247 39.288C200.573 39.8667 200.737 40.5387 200.737 41.304ZM196.957 38.84C196.397 38.84 195.921 39.008 195.529 39.344C195.146 39.6707 194.913 40.1093 194.829 40.66H199.071C198.996 40.1187 198.767 39.68 198.385 39.344C198.002 39.008 197.526 38.84 196.957 38.84ZM206.795 37.44C207.523 37.44 208.171 37.5987 208.741 37.916C209.319 38.2333 209.772 38.6813 210.099 39.26C210.425 39.8387 210.589 40.506 210.589 41.262C210.589 42.018 210.425 42.69 210.099 43.278C209.772 43.8567 209.319 44.3047 208.741 44.622C208.171 44.9393 207.523 45.098 206.795 45.098C205.787 45.098 204.989 44.762 204.401 44.09V47.716H202.651V37.524H204.317V38.504C204.606 38.1493 204.961 37.8833 205.381 37.706C205.81 37.5287 206.281 37.44 206.795 37.44ZM206.599 43.6C207.243 43.6 207.77 43.3853 208.181 42.956C208.601 42.5267 208.811 41.962 208.811 41.262C208.811 40.562 208.601 39.9973 208.181 39.568C207.77 39.1387 207.243 38.924 206.599 38.924C206.179 38.924 205.801 39.022 205.465 39.218C205.129 39.4047 204.863 39.6753 204.667 40.03C204.471 40.3847 204.373 40.7953 204.373 41.262C204.373 41.7287 204.471 42.1393 204.667 42.494C204.863 42.8487 205.129 43.124 205.465 43.32C205.801 43.5067 206.179 43.6 206.599 43.6ZM215.021 37.44C216.122 37.44 216.962 37.706 217.541 38.238C218.129 38.7607 218.423 39.554 218.423 40.618V45H216.771V44.09C216.556 44.4167 216.248 44.6687 215.847 44.846C215.455 45.014 214.979 45.098 214.419 45.098C213.859 45.098 213.369 45.0047 212.949 44.818C212.529 44.622 212.202 44.356 211.969 44.02C211.745 43.6747 211.633 43.2873 211.633 42.858C211.633 42.186 211.88 41.6493 212.375 41.248C212.879 40.8373 213.667 40.632 214.741 40.632H216.673V40.52C216.673 39.9973 216.514 39.596 216.197 39.316C215.889 39.036 215.427 38.896 214.811 38.896C214.391 38.896 213.975 38.9613 213.565 39.092C213.163 39.2227 212.823 39.4047 212.543 39.638L211.857 38.364C212.249 38.0653 212.72 37.8367 213.271 37.678C213.821 37.5193 214.405 37.44 215.021 37.44ZM214.783 43.824C215.221 43.824 215.609 43.726 215.945 43.53C216.29 43.3247 216.533 43.0353 216.673 42.662V41.794H214.867C213.859 41.794 213.355 42.1253 213.355 42.788C213.355 43.1053 213.481 43.3573 213.733 43.544C213.985 43.7307 214.335 43.824 214.783 43.824Z" fill="#131313"/>
<path d="M79.968 5.778V9.782H88.002V13.76H79.968V20H74.82V1.8H89.094V5.778H79.968ZM91.5016 1.8H96.6496V20H91.5016V1.8ZM106.708 20.364C105.235 20.364 103.805 20.182 102.418 19.818C101.032 19.454 99.9049 18.9687 99.0382 18.362L100.728 14.566C101.543 15.1033 102.488 15.5367 103.562 15.866C104.637 16.1953 105.694 16.36 106.734 16.36C108.71 16.36 109.698 15.866 109.698 14.878C109.698 14.358 109.412 13.9767 108.84 13.734C108.286 13.474 107.384 13.2053 106.136 12.928C104.767 12.6333 103.623 12.3213 102.704 11.992C101.786 11.6453 100.997 11.0993 100.338 10.354C99.6795 9.60867 99.3502 8.60333 99.3502 7.338C99.3502 6.22867 99.6535 5.232 100.26 4.348C100.867 3.44667 101.768 2.736 102.964 2.216C104.178 1.696 105.66 1.436 107.41 1.436C108.606 1.436 109.785 1.57467 110.946 1.852C112.108 2.112 113.13 2.502 114.014 3.022L112.428 6.844C110.695 5.908 109.014 5.44 107.384 5.44C106.362 5.44 105.616 5.596 105.148 5.908C104.68 6.20267 104.446 6.59267 104.446 7.078C104.446 7.56333 104.724 7.92733 105.278 8.17C105.833 8.41267 106.726 8.664 107.956 8.924C109.343 9.21867 110.487 9.53933 111.388 9.886C112.307 10.2153 113.096 10.7527 113.754 11.498C114.43 12.226 114.768 13.2227 114.768 14.488C114.768 15.58 114.465 16.568 113.858 17.452C113.252 18.336 112.342 19.0467 111.128 19.584C109.915 20.104 108.442 20.364 106.708 20.364ZM134.462 1.8V20H129.314V12.902H122.294V20H117.146V1.8H122.294V8.638H129.314V1.8H134.462ZM152.705 16.022V20H138.093V1.8H152.367V5.778H143.189V8.846H151.275V12.694H143.189V16.022H152.705ZM163.518 15.164H160.71V20H155.562V1.8H163.882C165.529 1.8 166.959 2.07733 168.172 2.632C169.386 3.16933 170.322 3.94933 170.98 4.972C171.639 5.97733 171.968 7.16467 171.968 8.534C171.968 9.85133 171.656 11.004 171.032 11.992C170.426 12.9627 169.55 13.7253 168.406 14.28L172.332 20H166.82L163.518 15.164ZM166.768 8.534C166.768 7.68467 166.5 7.026 165.962 6.558C165.425 6.09 164.628 5.856 163.57 5.856H160.71V11.186H163.57C164.628 11.186 165.425 10.9607 165.962 10.51C166.5 10.042 166.768 9.38333 166.768 8.534ZM174.135 10.692H181.727V14.488H174.135V10.692ZM190.878 20.364C189.405 20.364 187.975 20.182 186.588 19.818C185.201 19.454 184.075 18.9687 183.208 18.362L184.898 14.566C185.713 15.1033 186.657 15.5367 187.732 15.866C188.807 16.1953 189.864 16.36 190.904 16.36C192.88 16.36 193.868 15.866 193.868 14.878C193.868 14.358 193.582 13.9767 193.01 13.734C192.455 13.474 191.554 13.2053 190.306 12.928C188.937 12.6333 187.793 12.3213 186.874 11.992C185.955 11.6453 185.167 11.0993 184.508 10.354C183.849 9.60867 183.52 8.60333 183.52 7.338C183.52 6.22867 183.823 5.232 184.43 4.348C185.037 3.44667 185.938 2.736 187.134 2.216C188.347 1.696 189.829 1.436 191.58 1.436C192.776 1.436 193.955 1.57467 195.116 1.852C196.277 2.112 197.3 2.502 198.184 3.022L196.598 6.844C194.865 5.908 193.183 5.44 191.554 5.44C190.531 5.44 189.786 5.596 189.318 5.908C188.85 6.20267 188.616 6.59267 188.616 7.078C188.616 7.56333 188.893 7.92733 189.448 8.17C190.003 8.41267 190.895 8.664 192.126 8.924C193.513 9.21867 194.657 9.53933 195.558 9.886C196.477 10.2153 197.265 10.7527 197.924 11.498C198.6 12.226 198.938 13.2227 198.938 14.488C198.938 15.58 198.635 16.568 198.028 17.452C197.421 18.336 196.511 19.0467 195.298 19.584C194.085 20.104 192.611 20.364 190.878 20.364ZM204.936 5.882H199.346V1.8H215.648V5.882H210.084V20H204.936V5.882ZM226.49 20.364C224.566 20.364 222.833 19.9567 221.29 19.142C219.765 18.3273 218.56 17.2007 217.676 15.762C216.81 14.3233 216.376 12.7027 216.376 10.9C216.376 9.09733 216.81 7.47667 217.676 6.038C218.56 4.59933 219.765 3.47267 221.29 2.658C222.833 1.84333 224.566 1.436 226.49 1.436C228.414 1.436 230.139 1.84333 231.664 2.658C233.207 3.47267 234.412 4.59933 235.278 6.038C236.162 7.47667 236.604 9.09733 236.604 10.9C236.604 12.7027 236.162 14.3233 235.278 15.762C234.412 17.2007 233.207 18.3273 231.664 19.142C230.139 19.9567 228.414 20.364 226.49 20.364ZM226.49 16.1C227.409 16.1 228.241 15.8833 228.986 15.45C229.732 15.0167 230.321 14.41 230.754 13.63C231.188 12.8327 231.404 11.9227 231.404 10.9C231.404 9.87733 231.188 8.976 230.754 8.196C230.321 7.39867 229.732 6.78333 228.986 6.35C228.241 5.91667 227.409 5.7 226.49 5.7C225.572 5.7 224.74 5.91667 223.994 6.35C223.249 6.78333 222.66 7.39867 222.226 8.196C221.793 8.976 221.576 9.87733 221.576 10.9C221.576 11.9227 221.793 12.8327 222.226 13.63C222.66 14.41 223.249 15.0167 223.994 15.45C224.74 15.8833 225.572 16.1 226.49 16.1ZM247.256 15.164H244.448V20H239.3V1.8H247.62C249.267 1.8 250.697 2.07733 251.91 2.632C253.124 3.16933 254.06 3.94933 254.718 4.972C255.377 5.97733 255.706 7.16467 255.706 8.534C255.706 9.85133 255.394 11.004 254.77 11.992C254.164 12.9627 253.288 13.7253 252.144 14.28L256.07 20H250.558L247.256 15.164ZM250.506 8.534C250.506 7.68467 250.238 7.026 249.7 6.558C249.163 6.09 248.366 5.856 247.308 5.856H244.448V11.186H247.308C248.366 11.186 249.163 10.9607 249.7 10.51C250.238 10.042 250.506 9.38333 250.506 8.534ZM273.159 16.022V20H258.547V1.8H272.821V5.778H263.643V8.846H271.729V12.694H263.643V16.022H273.159ZM278.115 20.234C277.283 20.234 276.581 19.9567 276.009 19.402C275.437 18.8473 275.151 18.1453 275.151 17.296C275.151 16.4293 275.429 15.7273 275.983 15.19C276.555 14.6527 277.266 14.384 278.115 14.384C278.982 14.384 279.693 14.6527 280.247 15.19C280.802 15.7273 281.079 16.4293 281.079 17.296C281.079 18.1453 280.793 18.8473 280.221 19.402C279.667 19.9567 278.965 20.234 278.115 20.234ZM291.589 15.164H288.781V20H283.633V1.8H291.953C293.599 1.8 295.029 2.07733 296.243 2.632C297.456 3.16933 298.392 3.94933 299.051 4.972C299.709 5.97733 300.039 7.16467 300.039 8.534C300.039 9.85133 299.727 11.004 299.103 11.992C298.496 12.9627 297.621 13.7253 296.477 14.28L300.403 20H294.891L291.589 15.164ZM294.839 8.534C294.839 7.68467 294.57 7.026 294.033 6.558C293.495 6.09 292.698 5.856 291.641 5.856H288.781V11.186H291.641C292.698 11.186 293.495 10.9607 294.033 10.51C294.57 10.042 294.839 9.38333 294.839 8.534ZM311.277 20.364C308.573 20.364 306.467 19.6273 304.959 18.154C303.468 16.6807 302.723 14.592 302.723 11.888V1.8H307.871V11.732C307.871 14.644 309.023 16.1 311.329 16.1C313.617 16.1 314.761 14.644 314.761 11.732V1.8H319.831V11.888C319.831 14.592 319.077 16.6807 317.569 18.154C316.078 19.6273 313.981 20.364 311.277 20.364Z" fill="#131313"/>
<path d="M37.0417 12.0167L31.2232 15.3757L45.7382 23.7552L37.1074 28.7377L22.5925 20.3582L11.7313 26.6284L3.54976e-05 19.8559L33.9412 0.261719L62.2254 16.5902L53.5947 21.5728L37.0417 12.0167Z" fill="#1B94A6"/>
</svg>
